# xmcd CD database file
#
# Track frame offsets:
#	150
#	30477
#	53285
#	76120
#	95285
#	123775
#	155785
#	165452
#	176492
#	200875
#	225730
#	244580
#	263462
#	277435
#	293642
#
# Disc length: 4398 seconds
#
# Revision: 0
# Processed by: cddbd v1.5.1PL0 Copyright (c) Steve Scherf et al.
# Submitted via: CDex 1.51
#
DISCID=be112c0f
DTITLE=Jean-Michel Pilc Trio - Welcome Home
DYEAR=2002
DGENRE=Jazz
TTITLE0=So What
TTITLE1=I Got It Bad And That Ain't Good
TTITLE2=Stella By Starlight
TTITLE3=Autumn In Newfane
TTITLE4=Colchiques Dans Les Pres
TTITLE5=Solitude
TTITLE6=Cousin Mary
TTITLE7=Giant Steps
TTITLE8=Tenderly
TTITLE9=Welcome Home
TTITLE10=Serial Mother Blues
TTITLE11=Scarborough
TTITLE12=Rhythm-A-Ning
TTITLE13=Beginning
TTITLE14=Afro Blues
EXTD=YEAR: 2002
EXTT0=
EXTT1=
EXTT2=
EXTT3=
EXTT4=
EXTT5=
EXTT6=
EXTT7=
EXTT8=
EXTT9=
EXTT10=
EXTT11=
EXTT12=
EXTT13=
EXTT14=
PLAYORDER=
